{"asset":{"generator":"Khronos glTF Spline I/O v0.0.1","version":"2.0"},"scenes":[{"nodes":[0]}],"nodes":[{"name":"","children":[1,2],"matrix":[0.01,0,0,0,0,0.01,0,0,0,0,0.01,0,0,0,0,1]},{"name":"","camera":0,"translation":[527.1926285846165,471.76257883964615,707.0544412449407],"rotation":[-0.2372282339820861,0.31187316956877104,0.08072722010736158,0.9164829551271572]},{"name":"Text","matrix":[1,0,0,0,0,1,0,0,0,0,1,0,-17.744809683157627,48.5,10.426077921631077,1],"mesh":0}],"cameras":[{"type":"orthographic","orthographic":{"xmag":1920,"ymag":1011,"zfar":100000,"znear":-100000}}],"meshes":[{"primitives":[{"attributes":{"POSITION":1,"NORMAL":2,"TEXCOORD_0":3},"indices":0}]}],"buffers":[{"uri":"data:application/octet-stream;base64,","byteLength":81968}],"bufferViews":[{"buffer":0,"byteOffset":0,"byteLength":15984,"target":34963},{"buffer":0,"byteOffset":15984,"byteLength":24744,"target":34962},{"buffer":0,"byteOffset":40728,"byteLength":24744,"target":34962},{"buffer":0,"byteOffset":65472,"byteLength":16496,"target":34962}],"accessors":[{"bufferView":0,"byteOffset":0,"componentType":5123,"count":7992,"type":"SCALAR","min":[0],"max":[2061]},{"bufferView":1,"byteOffset":0,"componentType":5126,"count":2062,"type":"VEC3","min":[-128.95001220703125,-50.50397491455078,0],"max":[122.94998931884766,96.09602355957031,44.85215759277344]},{"bufferView":2,"byteOffset":0,"componentType":5126,"count":2062,"type":"VEC3","min":[-1,-1,-1],"max":[1,1,1]},{"bufferView":3,"byteOffset":0,"componentType":5126,"count":2062,"type":"VEC2","min":[0,0],"max":[1,1]}],"extensions":{"KHR_lights_punctual":{"lights":[]}},"extensionsUsed":["KHR_lights_punctual"]}